<svg width="24" height="22" viewBox="0 0 24 22" fill="none" xmlns="http://www.w3.org/2000/svg">
    <path d="M5.73982 15.309H3.41464C3.31977 15.309 3.22879 15.3467 3.1617 15.4138C3.09462 15.4809 3.05693 15.5719 3.05693 15.6667V16.2927C3.05693 16.3397 3.06619 16.3862 3.08416 16.4296C3.10214 16.473 3.12849 16.5125 3.1617 16.5457C3.19492 16.5789 3.23435 16.6052 3.27775 16.6232C3.32115 16.6412 3.36767 16.6504 3.41464 16.6504H5.73982M5.73982 7.26025H3.14635C3.09937 7.26025 3.05286 7.26951 3.00946 7.28748C2.96606 7.30546 2.92663 7.33181 2.89341 7.36502C2.86019 7.39824 2.83385 7.43768 2.81587 7.48107C2.79789 7.52447 2.78864 7.57099 2.78864 7.61796V8.24397C2.78864 8.29094 2.79789 8.33746 2.81587 8.38086C2.83385 8.42426 2.86019 8.46369 2.89341 8.49691C2.92663 8.53012 2.96606 8.55647 3.00946 8.57445C3.05286 8.59243 3.09937 8.60168 3.14635 8.60168H5.73982M5.73982 9.94319H2.34147M5.73982 11.7318H2.34147M5.73982 13.5204H2.34147" stroke="#E84144" stroke-miterlimit="10" stroke-linecap="round" stroke-linejoin="round"/>
    <path d="M1 7.63078V17.992C1 18.4856 1.4006 18.8862 1.89416 18.8862H5.73996M1 6.08149V3.68274C1 3.18918 1.4006 2.78857 1.89416 2.78857H5.73996M18.2602 15.3089H20.5853C20.6802 15.3089 20.7712 15.3466 20.8383 15.4137C20.9054 15.4808 20.9431 15.5718 20.9431 15.6666V16.2926C20.9431 16.3875 20.9054 16.4785 20.8383 16.5456C20.7712 16.6126 20.6802 16.6503 20.5853 16.6503H18.2602M9.76423 5.91868H14.2358M18.2602 7.26015H20.8536C20.9485 7.26015 21.0395 7.29784 21.1066 7.36492C21.1737 7.432 21.2113 7.52299 21.2113 7.61786V8.24386C21.2113 8.33873 21.1737 8.42972 21.1066 8.4968C21.0395 8.56388 20.9485 8.60157 20.8536 8.60157H18.2602M16.0244 10.3902H10.6585M9.31706 10.3902H7.97559M16.0244 12.1788H10.6585M9.31706 12.1788H7.97559M16.0244 13.9674H10.6585M9.31706 13.9674H7.97559M16.0244 15.7561H10.6585M21.6585 9.94308H18.2602M21.6585 11.7317H18.2602M21.6585 13.5203H18.2602M9.31706 15.7561H7.97559M12.775 3.86179L12 2.78862L11.2249 3.86179L9.76423 3.23575L10.2114 5.91868H13.7886L14.2358 3.23575L12.775 3.86179ZM7.08129 8.24391V7.6179C7.08129 7.52303 7.11898 7.43205 7.18606 7.36496C7.25315 7.29788 7.34413 7.26019 7.439 7.26019H16.5609C16.6558 7.26019 16.7468 7.29788 16.8139 7.36496C16.881 7.43205 16.9186 7.52303 16.9186 7.6179V8.24391C16.9186 8.33878 16.881 8.42976 16.8139 8.49685C16.7468 8.56393 16.6558 8.60162 16.5609 8.60162H7.439C7.34413 8.60162 7.25315 8.56393 7.18606 8.49685C7.11898 8.42976 7.08129 8.33878 7.08129 8.24391ZM9.31706 18.5284V17.9024C9.31706 17.8076 9.35474 17.7166 9.42183 17.6495C9.48891 17.5824 9.5799 17.5447 9.67477 17.5447H14.3252C14.42 17.5447 14.511 17.5824 14.5781 17.6495C14.6452 17.7166 14.6829 17.8076 14.6829 17.9024V18.5284C14.6829 18.5754 14.6736 18.6219 14.6557 18.6653C14.6377 18.7087 14.6113 18.7482 14.5781 18.7814C14.5449 18.8146 14.5055 18.8409 14.4621 18.8589C14.4187 18.8769 14.3721 18.8861 14.3252 18.8861H9.67481C9.62783 18.8861 9.58131 18.8769 9.53791 18.8589C9.4945 18.841 9.45506 18.8146 9.42184 18.7814C9.38862 18.7482 9.36227 18.7087 9.34429 18.6653C9.32631 18.6219 9.31706 18.5754 9.31706 18.5284Z" stroke="#E84144" stroke-miterlimit="10" stroke-linecap="round" stroke-linejoin="round"/>
    <path d="M9.56229 1H17.3659C17.8599 1 18.26 1.4006 18.26 1.89461V19.7805C18.26 20.2746 17.8599 20.6752 17.3659 20.6752H6.63412C6.14012 20.6752 5.73996 20.2746 5.73996 19.7805V1.89461C5.73996 1.4006 6.14012 1 6.63412 1H8.01299M23 15.871V17.9922C23 18.4858 22.5994 18.8864 22.1058 18.8864H18.26M18.26 2.78877H22.1058C22.5994 2.78877 23 3.18937 23 3.68294V14.3217" stroke="#E84144" stroke-miterlimit="10" stroke-linecap="round" stroke-linejoin="round"/>
</svg>
